<?xml version="1.0" encoding="UTF-8"?>
<svg version="1.1" xmlns="http://www.w3.org/2000/svg" width="2048" height="2048">
<path d="M0 0 C209.55 0 419.1 0 635 0 C635 40.26 635 80.52 635 122 C425.45 122 215.9 122 0 122 C0 81.74 0 41.48 0 0 Z " fill="#3F2D6A" transform="translate(253,1065)"/>
<path d="M0 0 C209.22 0 418.44 0 634 0 C634 40.26 634 80.52 634 122 C424.78 122 215.56 122 0 122 C0 81.74 0 41.48 0 0 Z " fill="#3F2D69" transform="translate(1178,263)"/>
<path d="M0 0 C3.67478239 0.0031562 7.34875416 -0.02036753 11.0234375 -0.0456543 C25.27211816 -0.08413573 38.92263476 0.78843354 52.9453125 3.31567383 C54.12125977 3.51443115 55.29720703 3.71318848 56.50878906 3.91796875 C59.41434618 4.42627988 62.3045154 4.97965691 65.1953125 5.56567383 C66.22052002 5.77256836 67.24572754 5.97946289 68.30200195 6.19262695 C88.81271772 10.47355827 109.07407624 16.2810457 127.98388672 25.38208008 C130.23408456 26.45312272 132.49732854 27.49373037 134.76171875 28.53442383 C152.67710957 36.82533272 169.23786926 46.37367138 185.16259766 58.0456543 C186.88354758 59.27167204 188.64114891 60.40787165 190.42578125 61.53833008 C191.25722656 62.12485352 192.08867188 62.71137695 192.9453125 63.31567383 C192.9453125 63.97567383 192.9453125 64.63567383 192.9453125 65.31567383 C193.9971875 65.65598633 193.9971875 65.65598633 195.0703125 66.00317383 C198.68659785 67.65408671 201.03301226 69.60655733 203.9453125 72.31567383 C203.9453125 72.97567383 203.9453125 73.63567383 203.9453125 74.31567383 C204.51765625 74.5709082 205.09 74.82614258 205.6796875 75.08911133 C213.48558543 79.31506296 219.94430074 87.21981164 226.1953125 93.44067383 C226.86852539 94.10921387 227.54173828 94.77775391 228.23535156 95.46655273 C239.9453125 107.21413836 239.9453125 107.21413836 239.9453125 110.31567383 C240.6053125 110.31567383 241.2653125 110.31567383 241.9453125 110.31567383 C243.234375 111.77661133 243.234375 111.77661133 244.5703125 113.69067383 C245.01632812 114.3171582 245.46234375 114.94364258 245.921875 115.58911133 C246.9453125 117.31567383 246.9453125 117.31567383 246.9453125 119.31567383 C247.6053125 119.31567383 248.2653125 119.31567383 248.9453125 119.31567383 C250.52021612 121.26041782 251.95917008 123.2007102 253.3828125 125.25317383 C253.81948242 125.87417969 254.25615234 126.49518555 254.70605469 127.13500977 C259.58068806 134.12694308 264.21838415 141.27348429 268.77783203 148.47387695 C269.74127611 149.99378957 270.71497938 151.50719392 271.69140625 153.01879883 C276.13218307 160.09515865 279.52616461 167.67630623 282.99902344 175.25854492 C283.8470316 177.10202191 284.71151595 178.93789883 285.578125 180.77270508 C302.44044867 216.57203622 312.34968151 256.67566773 312.9453125 296.31567383 C312.96045898 297.28746582 312.97560547 298.25925781 312.99121094 299.26049805 C313.08482971 306.6141386 313.06244576 313.96244633 312.9453125 321.31567383 C312.93274414 322.11827637 312.92017578 322.92087891 312.90722656 323.74780273 C311.75255196 377.13382962 292.59808805 426.34499198 266.9453125 472.31567383 C266.2853125 472.31567383 265.6253125 472.31567383 264.9453125 472.31567383 C264.83300293 472.8913208 264.72069336 473.46696777 264.60498047 474.06005859 C263.87390369 476.55984333 262.85034722 478.25251499 261.390625 480.40551758 C260.86355957 481.18362793 260.33649414 481.96173828 259.79345703 482.76342773 C259.22481934 483.58504395 258.65618164 484.40666016 258.0703125 485.25317383 C257.48749512 486.10057129 256.90467773 486.94796875 256.30419922 487.82104492 C251.98556979 494.01550197 247.37750483 499.82490669 242.39453125 505.49145508 C239.51794902 508.80847095 236.88275313 512.26639649 234.28515625 515.80395508 C233.84300781 516.30282227 233.40085937 516.80168945 232.9453125 517.31567383 C232.2853125 517.31567383 231.6253125 517.31567383 230.9453125 517.31567383 C230.9453125 517.97567383 230.9453125 518.63567383 230.9453125 519.31567383 C230.2853125 519.31567383 229.6253125 519.31567383 228.9453125 519.31567383 C228.7184375 519.86739258 228.4915625 520.41911133 228.2578125 520.98754883 C226.55805324 524.002598 224.39726434 526.12797752 221.9453125 528.56567383 C221.0584375 529.45770508 220.1715625 530.34973633 219.2578125 531.26879883 C216.9453125 533.31567383 216.9453125 533.31567383 214.9453125 533.31567383 C214.9453125 533.97567383 214.9453125 534.63567383 214.9453125 535.31567383 C214.2853125 535.31567383 213.6253125 535.31567383 212.9453125 535.31567383 C212.9453125 535.97567383 212.9453125 536.63567383 212.9453125 537.31567383 C211.41693981 538.71166779 209.81881151 540.03155032 208.1953125 541.31567383 C207.19242188 542.11618164 206.18953125 542.91668945 205.15625 543.74145508 C204.62741211 544.16249512 204.09857422 544.58353516 203.55371094 545.01733398 C201.96893681 546.29660369 200.41074724 547.60163572 198.859375 548.92114258 C183.09395093 562.31567383 183.09395093 562.31567383 178.9453125 562.31567383 C178.9453125 562.97567383 178.9453125 563.63567383 178.9453125 564.31567383 C176.43667761 566.04384453 173.93324426 567.63265578 171.3203125 569.19067383 C170.51634033 569.67391113 169.71236816 570.15714844 168.8840332 570.6550293 C153.13911198 580.03299538 137.24946668 588.48963416 120.25244141 595.37231445 C118.21327461 596.2061071 116.1929368 597.07095827 114.17578125 597.95629883 C98.26951079 604.74011788 80.9397532 609.25139126 63.9453125 612.31567383 C63.12853027 612.47132813 62.31174805 612.62698242 61.47021484 612.78735352 C39.32259053 616.95935696 16.73568736 618.61408284 -5.79785156 618.35449219 C-74.32326317 617.57467497 -142.80662032 642.60704174 -194.0546875 688.31567383 C-195.03695312 689.18708008 -196.01921875 690.05848633 -197.03125 690.95629883 C-208.51144992 701.31574045 -219.63063196 712.02060653 -229.0546875 724.31567383 C-229.73845459 725.20077637 -229.73845459 725.20077637 -230.43603516 726.10375977 C-248.44084171 749.46551535 -262.43145856 774.19480629 -274.0546875 801.31567383 C-281.9746875 801.31567383 -289.8946875 801.31567383 -298.0546875 801.31567383 C-297.27358957 796.62908622 -296.55576953 793.7249191 -294.69140625 789.54223633 C-293.97887695 787.93348633 -293.97887695 787.93348633 -293.25195312 786.29223633 C-292.75373047 785.1862207 -292.25550781 784.08020508 -291.7421875 782.94067383 C-291.25556641 781.84239258 -290.76894531 780.74411133 -290.26757812 779.61254883 C-279.58955618 755.64089257 -266.21053676 733.77214696 -250.29052734 712.95239258 C-249.27316653 711.60502259 -248.29328814 710.22943366 -247.32421875 708.84692383 C-246.90527344 708.34161133 -246.48632812 707.83629883 -246.0546875 707.31567383 C-245.3946875 707.31567383 -244.7346875 707.31567383 -244.0546875 707.31567383 C-243.66603516 706.44942383 -243.66603516 706.44942383 -243.26953125 705.56567383 C-241.96131293 703.14273572 -240.46603019 701.35138879 -238.6171875 699.31567383 C-236.77571691 697.27931759 -235.04772879 695.30587379 -233.45703125 693.06567383 C-232.99425781 692.48817383 -232.53148437 691.91067383 -232.0546875 691.31567383 C-231.3946875 691.31567383 -230.7346875 691.31567383 -230.0546875 691.31567383 C-230.0546875 690.65567383 -230.0546875 689.99567383 -230.0546875 689.31567383 C-229.3946875 689.31567383 -228.7346875 689.31567383 -228.0546875 689.31567383 C-228.0546875 688.65567383 -228.0546875 687.99567383 -228.0546875 687.31567383 C-227.3946875 687.31567383 -226.7346875 687.31567383 -226.0546875 687.31567383 C-225.6525 686.35661133 -225.6525 686.35661133 -225.2421875 685.37817383 C-224.0546875 683.31567383 -224.0546875 683.31567383 -221.0546875 682.31567383 C-221.0546875 681.65567383 -221.0546875 680.99567383 -221.0546875 680.31567383 C-220.3946875 680.31567383 -219.7346875 680.31567383 -219.0546875 680.31567383 C-219.0546875 679.65567383 -219.0546875 678.99567383 -219.0546875 678.31567383 C-217.44085802 676.85907406 -215.76105534 675.47518431 -214.0546875 674.12817383 C-209.77892884 670.71860112 -205.64369531 667.22576207 -201.61328125 663.53051758 C-200.0546875 662.31567383 -200.0546875 662.31567383 -198.0546875 662.31567383 C-198.0546875 661.65567383 -198.0546875 660.99567383 -198.0546875 660.31567383 C-196.10986734 658.74070853 -194.16992915 657.30158377 -192.1171875 655.87817383 C-191.49038086 655.43860352 -190.86357422 654.9990332 -190.21777344 654.54614258 C-176.94148164 645.30819212 -163.3262223 636.9260717 -149.0546875 629.31567383 C-148.41805176 628.96939941 -147.78141602 628.623125 -147.12548828 628.26635742 C-134.31107696 621.32253771 -120.71710808 616.32339539 -107.0546875 611.31567383 C-106.29736328 611.035625 -105.54003906 610.75557617 -104.75976562 610.46704102 C-90.11635395 605.10456271 -74.81360648 601.87252262 -59.4921875 599.12817383 C-58.64462891 598.97340576 -57.79707031 598.8186377 -56.92382812 598.65917969 C-37.96637063 595.41432076 -19.01352749 594.97260645 0.17285156 594.78393555 C48.5112965 594.26314198 97.78270475 585.23905369 139.9453125 560.31567383 C140.91339844 559.76266602 141.88148438 559.2096582 142.87890625 558.63989258 C159.80421073 548.91592784 176.05970629 538.05758685 190.6184082 525.01025391 C193.06732525 522.82892512 194.7946274 521.36590219 197.9453125 520.31567383 C197.9453125 519.65567383 197.9453125 518.99567383 197.9453125 518.31567383 C198.6053125 518.31567383 199.2653125 518.31567383 199.9453125 518.31567383 C199.9453125 517.65567383 199.9453125 516.99567383 199.9453125 516.31567383 C201.5546875 514.76489258 201.5546875 514.76489258 203.6953125 513.00317383 C206.86292599 510.32805148 209.37624215 507.57641697 211.9453125 504.31567383 C212.6053125 504.31567383 213.2653125 504.31567383 213.9453125 504.31567383 C213.9453125 503.65567383 213.9453125 502.99567383 213.9453125 502.31567383 C214.6053125 502.31567383 215.2653125 502.31567383 215.9453125 502.31567383 C216.17605469 501.77168945 216.40679688 501.22770508 216.64453125 500.66723633 C218.3071933 497.66146289 220.49496462 495.24832936 222.7578125 492.69067383 C237.90993017 475.1381204 251.29439847 455.42032134 260.9453125 434.31567383 C261.53892578 433.01968262 261.53892578 433.01968262 262.14453125 431.69750977 C270.9063299 412.40133319 278.06009476 392.94549639 282.9453125 372.31567383 C283.12690918 371.58074707 283.30850586 370.84582031 283.49560547 370.08862305 C295.68953412 320.04385706 291.0160273 265.83302499 274.9453125 217.31567383 C274.58203857 216.20144043 274.58203857 216.20144043 274.21142578 215.06469727 C269.2461312 199.94658591 262.49618105 185.99226618 254.88867188 172.04516602 C253.99171159 170.40073882 253.10114739 168.75282762 252.2109375 167.10473633 C249.34938647 161.80970568 249.34938647 161.80970568 246.27734375 156.63598633 C244.9453125 154.31567383 244.9453125 154.31567383 244.9453125 152.31567383 C244.2853125 152.31567383 243.6253125 152.31567383 242.9453125 152.31567383 C241.56281739 150.44886515 240.26327616 148.52017591 239.0078125 146.56567383 C236.21976143 142.22302435 236.21976143 142.22302435 233.19140625 138.05004883 C231.9453125 136.31567383 231.9453125 136.31567383 231.9453125 134.31567383 C231.2853125 134.31567383 230.6253125 134.31567383 229.9453125 134.31567383 C228.65625 132.85473633 228.65625 132.85473633 227.3203125 130.94067383 C226.65128906 130.00094727 226.65128906 130.00094727 225.96875 129.04223633 C224.9453125 127.31567383 224.9453125 127.31567383 224.9453125 125.31567383 C224.2853125 125.31567383 223.6253125 125.31567383 222.9453125 125.31567383 C221.70347049 123.88182632 220.52988962 122.38890357 219.3828125 120.87817383 C215.02205043 115.42722124 210.30973274 110.44617234 205.3828125 105.50317383 C204.67503662 104.78653564 203.96726074 104.06989746 203.23803711 103.33154297 C199.19695551 99.31197887 195.09337553 95.77498899 190.39868164 92.53564453 C189.67926392 91.93175903 189.67926392 91.93175903 188.9453125 91.31567383 C188.9453125 90.65567383 188.9453125 89.99567383 188.9453125 89.31567383 C188.4296875 89.08879883 187.9140625 88.86192383 187.3828125 88.62817383 C184.04984245 86.83349765 180.79827579 84.81602368 177.9453125 82.31567383 C177.9453125 81.65567383 177.9453125 80.99567383 177.9453125 80.31567383 C177.23117187 80.0655957 176.51703125 79.81551758 175.78125 79.55786133 C172.66213207 78.19163612 170.27986792 76.49807265 167.5703125 74.44067383 C163.48047473 71.39681622 159.43995726 68.7128177 154.9453125 66.31567383 C154.9453125 65.65567383 154.9453125 64.99567383 154.9453125 64.31567383 C154.36225342 64.19200439 153.77919434 64.06833496 153.1784668 63.94091797 C150.92468416 63.30989825 149.2336073 62.48367582 147.21484375 61.31176758 C146.50328125 60.90482666 145.79171875 60.49788574 145.05859375 60.07861328 C144.29933594 59.64121826 143.54007813 59.20382324 142.7578125 58.75317383 C120.86776089 46.3979576 98.18760878 37.86407618 73.9453125 31.31567383 C73.15737305 31.10281738 72.36943359 30.88996094 71.55761719 30.6706543 C50.03935485 24.97577637 28.04951576 23.12649034 5.85009766 23.18530273 C3.44817803 23.19066743 1.0464453 23.18531841 -1.35546875 23.17895508 C-73.32555537 23.1415349 -140.66540496 52.84033548 -192.96875 101.57348633 C-195.0546875 103.31567383 -195.0546875 103.31567383 -197.203125 104.30786133 C-199.57899303 105.60105532 -199.94616953 106.89335678 -201.0546875 109.31567383 C-202.53515625 110.92114258 -202.53515625 110.92114258 -204.2421875 112.50317383 C-207.78621102 115.9137404 -210.67912855 119.62469028 -213.57421875 123.59301758 C-214.06277344 124.16149414 -214.55132812 124.7299707 -215.0546875 125.31567383 C-215.7146875 125.31567383 -216.3746875 125.31567383 -217.0546875 125.31567383 C-217.2815625 125.83516602 -217.5084375 126.3546582 -217.7421875 126.88989258 C-219.53419402 130.20190463 -221.79728404 133.12593196 -224.0546875 136.12817383 C-235.22054186 151.17201175 -244.91242012 166.67969243 -253.15576172 183.50317383 C-254.29209969 185.79436695 -255.49031374 188.0516569 -256.6796875 190.31567383 C-262.83919827 202.67589611 -266.78050134 216.22029497 -271.0546875 229.31567383 C-270.35085938 228.74461914 -269.64703125 228.17356445 -268.921875 227.58520508 C-248.41932342 211.35634613 -226.26205425 202.86109608 -199.9921875 202.94067383 C-199.25725067 202.94188232 -198.52231384 202.94309082 -197.7651062 202.94433594 C-175.08269297 203.04569742 -155.73422288 209.20161646 -137.0546875 222.31567383 C-136.3225 222.80293945 -135.5903125 223.29020508 -134.8359375 223.79223633 C-133.197736 224.90387306 -131.6174136 226.1002202 -130.0546875 227.31567383 C-130.0546875 227.97567383 -130.0546875 228.63567383 -130.0546875 229.31567383 C-129.4978125 229.54254883 -128.9409375 229.76942383 -128.3671875 230.00317383 C-125.39309162 231.69117419 -123.33459885 233.78243899 -121.0546875 236.31567383 C-121.0546875 236.97567383 -121.0546875 237.63567383 -121.0546875 238.31567383 C-120.0646875 238.64567383 -119.0746875 238.97567383 -118.0546875 239.31567383 C-103.6847447 256.83169878 -94.2627835 278.8112462 -93.3671875 301.50317383 C-93.31075073 302.88508911 -93.31075073 302.88508911 -93.25317383 304.29492188 C-92.19084954 334.92036645 -102.8117569 361.1752332 -123.48876953 383.7175293 C-126.15804989 386.44174339 -128.94484562 389.09921744 -132.0546875 391.31567383 C-132.7146875 391.31567383 -133.3746875 391.31567383 -134.0546875 391.31567383 C-134.0546875 391.97567383 -134.0546875 392.63567383 -134.0546875 393.31567383 C-154.46790865 409.31756329 -182.51703655 417.27164059 -208.22265625 414.82348633 C-227.64936522 412.24910084 -245.77445506 406.58660398 -262.0546875 395.31567383 C-262.0546875 394.65567383 -262.0546875 393.99567383 -262.0546875 393.31567383 C-262.7146875 393.13004883 -263.3746875 392.94442383 -264.0546875 392.75317383 C-272.61231357 388.65264467 -278.4001431 380.67782929 -284.0546875 373.31567383 C-284.98474609 372.10911133 -284.98474609 372.10911133 -285.93359375 370.87817383 C-303.30085752 347.25558686 -307.27228127 319.05041427 -305.3671875 290.44067383 C-305.32212067 289.73011841 -305.27705383 289.01956299 -305.23062134 288.28747559 C-301.77367902 234.79843147 -283.50299008 187.38222282 -257.0546875 141.31567383 C-256.3946875 141.31567383 -255.7346875 141.31567383 -255.0546875 141.31567383 C-254.8278125 140.4777832 -254.6009375 139.63989258 -254.3671875 138.77661133 C-252.80161549 134.64834703 -250.64406262 131.48441864 -248.0546875 127.94067383 C-247.60351562 127.30000977 -247.15234375 126.6593457 -246.6875 125.99926758 C-245.53232196 124.39637261 -244.29917504 122.8502615 -243.0546875 121.31567383 C-242.3946875 121.31567383 -241.7346875 121.31567383 -241.0546875 121.31567383 C-240.82910156 120.60797852 -240.60351562 119.9002832 -240.37109375 119.17114258 C-238.75905299 115.67440135 -236.6372991 113.41791023 -233.9921875 110.62817383 C-230.63509844 107.24646699 -230.63509844 107.24646699 -228.0546875 103.31567383 C-227.3946875 103.31567383 -226.7346875 103.31567383 -226.0546875 103.31567383 C-225.79816406 102.73043945 -225.54164063 102.14520508 -225.27734375 101.54223633 C-223.94906588 99.12332775 -222.48943949 97.5836851 -220.4921875 95.69067383 C-217.91453361 93.27045424 -217.91453361 93.27045424 -216.0546875 90.31567383 C-215.3946875 90.31567383 -214.7346875 90.31567383 -214.0546875 90.31567383 C-214.0546875 89.65567383 -214.0546875 88.99567383 -214.0546875 88.31567383 C-212.41015625 86.69458008 -212.41015625 86.69458008 -210.2421875 84.87817383 C-207.23005485 82.34228051 -207.23005485 82.34228051 -204.41796875 79.59301758 C-203.0546875 78.31567383 -203.0546875 78.31567383 -201.0546875 78.31567383 C-201.0546875 77.65567383 -201.0546875 76.99567383 -201.0546875 76.31567383 C-197.58650634 73.08644216 -193.79138357 70.22755852 -190.0546875 67.31567383 C-189.50474121 66.88641602 -188.95479492 66.4571582 -188.38818359 66.01489258 C-178.4704966 58.31567383 -178.4704966 58.31567383 -176.0546875 58.31567383 C-176.0546875 57.65567383 -176.0546875 56.99567383 -176.0546875 56.31567383 C-174.5168457 55.11401367 -174.5168457 55.11401367 -172.35546875 53.77661133 C-171.5651123 53.28257812 -170.77475586 52.78854492 -169.96044922 52.27954102 C-169.10467285 51.75521484 -168.24889648 51.23088867 -167.3671875 50.69067383 C-166.49594238 50.15087891 -165.62469727 49.61108398 -164.72705078 49.05493164 C-162.97313804 47.9689757 -161.21761773 46.88561155 -159.46044922 45.80493164 C-157.45815085 44.56543295 -155.47240713 43.30687564 -153.49609375 42.02661133 C-145.65365363 37.0114458 -137.50915394 33.05266152 -129.04589844 29.2253418 C-127.27036677 28.41420509 -125.50906103 27.5720923 -123.75 26.72583008 C-108.14158962 19.23935334 -91.68353511 14.00791575 -75.0546875 9.31567383 C-74.01441406 9.01918945 -72.97414063 8.72270508 -71.90234375 8.41723633 C-65.4598242 6.69799869 -58.91847957 5.47585713 -52.3671875 4.25317383 C-51.50689941 4.09059082 -50.64661133 3.92800781 -49.76025391 3.76049805 C-46.86376129 3.2368173 -43.96341228 2.76664065 -41.0546875 2.31567383 C-39.89340332 2.13254639 -38.73211914 1.94941895 -37.53564453 1.76074219 C-25.04532835 0.03381753 -12.59382882 -0.0225606 0 0 Z " fill="#3F2D69" transform="translate(569.0546875,221.684326171875)"/>
<path d="M0 0 C12.21 0 24.42 0 37 0 C35.19564782 3.60870437 34.6975903 4.54135756 31.69921875 6.7265625 C31.05146484 7.2009375 30.40371094 7.6753125 29.73632812 8.1640625 C29.06021484 8.64617187 28.38410156 9.12828125 27.6875 9.625 C27.02298828 10.11484375 26.35847656 10.6046875 25.67382812 11.109375 C22.23690327 13.59783098 19.07226632 15.66095692 15 17 C15 17.66 15 18.32 15 19 C12.8828125 20.7265625 12.8828125 20.7265625 10.125 22.625 C8.76761719 23.57246094 8.76761719 23.57246094 7.3828125 24.5390625 C5 26 5 26 3 26 C3 26.66 3 27.32 3 28 C0.94868523 29.60524484 -1.1040594 31.09318477 -3.25 32.5625 C-4.54510261 33.46756093 -5.83935977 34.37383274 -7.1328125 35.28125 C-8.11169434 35.96574219 -8.11169434 35.96574219 -9.11035156 36.6640625 C-13.82299247 39.99579002 -18.39738301 43.51892616 -23 47 C-26.99324973 50.00910689 -30.99299911 53.0092293 -35 56 C-36.03253906 56.7734375 -37.06507813 57.546875 -38.12890625 58.34375 C-39.11761719 59.0759375 -40.10632812 59.808125 -41.125 60.5625 C-42.01445313 61.22378906 -42.90390625 61.88507813 -43.8203125 62.56640625 C-46 64 -46 64 -48 64 C-48 64.66 -48 65.32 -48 66 C-50.1171875 67.7265625 -50.1171875 67.7265625 -52.875 69.625 C-54.23238281 70.57246094 -54.23238281 70.57246094 -55.6171875 71.5390625 C-58 73 -58 73 -60 73 C-60 73.66 -60 74.32 -60 75 C-62.0944968 76.63429751 -64.17782091 78.14167234 -66.375 79.625 C-66.97828125 80.04523438 -67.5815625 80.46546875 -68.203125 80.8984375 C-72.73462865 84 -72.73462865 84 -75 84 C-75 84.66 -75 85.32 -75 86 C-77.01953125 87.6640625 -77.01953125 87.6640625 -79.8125 89.625 C-80.82957031 90.346875 -81.84664062 91.06875 -82.89453125 91.8125 C-83.91933594 92.534375 -84.94414063 93.25625 -86 94 C-87.66934595 95.20462912 -89.33603743 96.41294563 -91 97.625 C-91.88558594 98.26695312 -92.77117187 98.90890625 -93.68359375 99.5703125 C-96.4202787 101.5655743 -99.13440522 103.59019566 -101.84765625 105.6171875 C-102.70552734 106.25575684 -103.56339844 106.89432617 -104.44726562 107.55224609 C-106.17675305 108.84032028 -107.90337238 110.13225534 -109.62695312 111.42822266 C-110.42166016 112.01909668 -111.21636719 112.6099707 -112.03515625 113.21875 C-112.7506665 113.75435547 -113.46617676 114.28996094 -114.20336914 114.84179688 C-116 116 -116 116 -118 116 C-118 116.66 -118 117.32 -118 118 C-120.1171875 119.7265625 -120.1171875 119.7265625 -122.875 121.625 C-124.23238281 122.57246094 -124.23238281 122.57246094 -125.6171875 123.5390625 C-128 125 -128 125 -130 125 C-130 125.66 -130 126.32 -130 127 C-131.84582816 128.40174185 -133.75550572 129.71962509 -135.6875 131 C-140.83506993 134.46797696 -145.79781583 138.09423069 -150.69555664 141.91162109 C-157.96549261 147.55656323 -165.40683889 152.97090457 -172.83251953 158.40820312 C-174.757425 159.82185301 -176.67537895 161.24413854 -178.58984375 162.671875 C-179.57082031 163.39890625 -180.55179688 164.1259375 -181.5625 164.875 C-182.38878906 165.49117187 -183.21507812 166.10734375 -184.06640625 166.7421875 C-186 168 -186 168 -188 168 C-188 168.66 -188 169.32 -188 170 C-190.1171875 171.7265625 -190.1171875 171.7265625 -192.875 173.625 C-193.77992188 174.25664063 -194.68484375 174.88828125 -195.6171875 175.5390625 C-198 177 -198 177 -200 177 C-200 177.66 -200 178.32 -200 179 C-201.75 180.2890625 -201.75 180.2890625 -204 181.625 C-205.11375 182.29402344 -205.11375 182.29402344 -206.25 182.9765625 C-206.8275 183.31429687 -207.405 183.65203125 -208 184 C-202.12744905 185.38172599 -196.2813651 186.45409271 -190.3125 187.3125 C-173.04948087 189.94730035 -156.42129918 194.08476245 -140 200 C-138.39590357 200.56400189 -136.79173531 201.1277995 -135.1875 201.69140625 C-125.17138851 205.25175428 -115.51410817 209.25537823 -106 214 C-105.24058105 214.37044434 -104.48116211 214.74088867 -103.69873047 215.12255859 C-89.48868003 222.08471948 -76.41845206 230.36648576 -63.40673828 239.35498047 C-61.39683495 240.72876102 -59.36508046 242.04575537 -57.30859375 243.34765625 C-56.54675781 243.89292969 -55.78492188 244.43820312 -55 245 C-55 245.66 -55 246.32 -55 247 C-54.2575 247.268125 -53.515 247.53625 -52.75 247.8125 C-50.10938051 248.95276751 -48.14447156 250.09380306 -46 252 C-46 252.66 -46 253.32 -46 254 C-45.43796875 254.2578125 -44.8759375 254.515625 -44.296875 254.78125 C-41.73295421 256.14169777 -39.54773635 257.72788962 -37.25 259.5 C-36.45078125 260.1084375 -35.6515625 260.716875 -34.828125 261.34375 C-34.22484375 261.8903125 -33.6215625 262.436875 -33 263 C-33 263.66 -33 264.32 -33 265 C-32.01 265.33 -31.02 265.66 -30 266 C-30 266.66 -30 267.32 -30 268 C-29.43796875 268.2371875 -28.8759375 268.474375 -28.296875 268.71875 C-25.48105958 270.28947697 -23.52044584 272.21471464 -21.25 274.5 C-20.45078125 275.2940625 -19.6515625 276.088125 -18.828125 276.90625 C-17 279 -17 279 -17 281 C-16.44828125 281.20625 -15.8965625 281.4125 -15.328125 281.625 C-12.13288937 283.51211903 -10.05669524 286.15686401 -7.75 289 C-7.29109375 289.5465625 -6.8321875 290.093125 -6.359375 290.65625 C-3 294.73549107 -3 294.73549107 -3 297 C-2.34 297 -1.68 297 -1 297 C0.63214914 298.88091537 2.13614552 300.759728 3.625 302.75 C4.28508057 303.62168823 4.28508057 303.62168823 4.95849609 304.51098633 C17 320.5670486 17 320.5670486 17 324 C17.66 324 18.32 324 19 324 C21.27187986 327.9472326 23.5306263 331.90168024 25.78076172 335.86132812 C26.58878848 337.27869185 27.4002752 338.69408909 28.21533203 340.10742188 C64.79043447 403.55670353 78.50418639 484.10302039 62 556 C61.76152344 557.04349609 61.52304688 558.08699219 61.27734375 559.16210938 C56.25643408 580.6208213 50.03211361 602.29497889 40 622 C39.35393213 623.31174429 38.70951015 624.62430003 38.06640625 625.9375 C32.29223974 637.67693043 26.17537472 649.04650866 19 660 C18.07380859 661.43666016 18.07380859 661.43666016 17.12890625 662.90234375 C12.74653247 669.61257805 8.04106755 675.98238329 3.1015625 682.28515625 C1.66625409 684.1393186 0.30065406 686.04901891 -1 688 C-1.66 688 -2.32 688 -3 688 C-3.2475 688.55171875 -3.495 689.1034375 -3.75 689.671875 C-5.24234474 692.45136707 -7.03672523 694.7814707 -9 697.25 C-10.051875 698.58804687 -10.051875 698.58804687 -11.125 699.953125 C-11.74375 700.62859375 -12.3625 701.3040625 -13 702 C-13.66 702 -14.32 702 -15 702 C-15 702.66 -15 703.32 -15 704 C-15.66 704 -16.32 704 -17 704 C-17 704.66 -17 705.32 -17 706 C-17.66 706 -18.32 706 -19 706 C-19.226875 706.556875 -19.45375 707.11375 -19.6875 707.6875 C-21.37550036 710.66159588 -23.46676517 712.72008865 -26 715 C-26.66 715 -27.32 715 -28 715 C-28 715.66 -28 716.32 -28 717 C-29.375 718.625 -29.375 718.625 -31 720 C-31.66 720 -32.32 720 -33 720 C-33 720.66 -33 721.32 -33 722 C-34.73391951 723.60634015 -36.538091 725.1375287 -38.375 726.625 C-39.37273437 727.44226562 -40.37046875 728.25953125 -41.3984375 729.1015625 C-44 731 -44 731 -46 731 C-46 731.66 -46 732.32 -46 733 C-47.4609375 734.2890625 -47.4609375 734.2890625 -49.375 735.625 C-50.00148438 736.07101562 -50.62796875 736.51703125 -51.2734375 736.9765625 C-53 738 -53 738 -55 738 C-55 738.66 -55 739.32 -55 740 C-56.72143555 741.38525391 -56.72143555 741.38525391 -59.13671875 742.9765625 C-60.0174707 743.56091064 -60.89822266 744.14525879 -61.80566406 744.74731445 C-62.75666992 745.36695068 -63.70767578 745.98658691 -64.6875 746.625 C-65.65268555 747.25946045 -66.61787109 747.8939209 -67.61230469 748.54760742 C-70.40196053 750.37490209 -73.19892954 752.19026354 -76 754 C-76.65887207 754.42716309 -77.31774414 754.85432617 -77.99658203 755.29443359 C-112.07365002 777.25651976 -151.09473732 791.34046128 -191 798 C-192.29333252 798.22647217 -192.29333252 798.22647217 -193.61279297 798.45751953 C-235.28233402 805.45401737 -279.19522702 801.89307016 -320 792 C-321.19447754 791.71068604 -321.19447754 791.71068604 -322.41308594 791.41552734 C-342.91935307 786.277099 -363.40313738 777.96967902 -382 768 C-384.12228116 766.95280512 -386.24714563 765.91082345 -388.375 764.875 C-399.53452579 759.27995008 -399.53452579 759.27995008 -404 756 C-404 755.34 -404 754.68 -404 754 C-404.515625 753.9175 -405.03125 753.835 -405.5625 753.75 C-409.04455732 752.67859775 -411.87200885 750.86476395 -415 749 C-415 748.34 -415 747.68 -415 747 C-415.70382812 746.75894531 -416.40765625 746.51789062 -417.1328125 746.26953125 C-420.45942854 744.79657456 -422.99743049 742.91107644 -425.875 740.6875 C-429.28815886 738.0665311 -432.69419482 735.48625292 -436.25 733.0625 C-437.1575 732.381875 -438.065 731.70125 -439 731 C-439 730.34 -439 729.68 -439 729 C-439.53625 728.773125 -440.0725 728.54625 -440.625 728.3125 C-443.82460161 726.54429911 -446.29037223 724.46329797 -449 722 C-449 721.34 -449 720.68 -449 720 C-449.56533447 719.75991211 -450.13066895 719.51982422 -450.71313477 719.27246094 C-453.47651579 717.73485638 -455.35927445 715.88286788 -457.58984375 713.640625 C-458.45673828 712.77179687 -459.32363281 711.90296875 -460.21679688 711.0078125 C-461.11462891 710.09773438 -462.01246094 709.18765625 -462.9375 708.25 C-463.83146484 707.35539062 -464.72542969 706.46078125 -465.64648438 705.5390625 C-478 693.10300668 -478 693.10300668 -478 690 C-478.66 690 -479.32 690 -480 690 C-481.26513672 688.62646484 -481.26513672 688.62646484 -482.6796875 686.7109375 C-483.19660156 686.01613281 -483.71351562 685.32132813 -484.24609375 684.60546875 C-484.78363281 683.86941406 -485.32117187 683.13335938 -485.875 682.375 C-486.40480469 681.66214844 -486.93460938 680.94929688 -487.48046875 680.21484375 C-496 668.6933933 -496 668.6933933 -496 666 C-496.66 666 -497.32 666 -498 666 C-499.51921282 663.94602427 -500.89672132 661.91036971 -502.25 659.75 C-502.65259033 659.11537842 -503.05518066 658.48075684 -503.4699707 657.8269043 C-506.49957453 652.97578372 -509.13658041 648.00071614 -511.61328125 642.84375 C-512.94729338 640.10808569 -514.38464212 637.46557677 -515.875 634.8125 C-539.13520002 592.42184827 -550.10503493 544.47087922 -550.375 496.3125 C-550.3830365 495.51111603 -550.391073 494.70973206 -550.39935303 493.88406372 C-550.62257176 464.62625028 -540.49032588 438.31821783 -520 417 C-514.47187441 411.66415704 -508.37348407 407.2661224 -502 403 C-501.04867188 402.33677734 -501.04867188 402.33677734 -500.078125 401.66015625 C-489.06091916 394.29181132 -476.75459008 390.85878743 -464 388 C-463.40695068 387.823479 -462.81390137 387.64695801 -462.20288086 387.46508789 C-457.33409778 386.43715574 -452.23429936 386.77370365 -447.27758789 386.75976562 C-445.23214652 386.7502086 -443.18777745 386.71923542 -441.14257812 386.6875 C-417.68042993 386.49660082 -394.89851614 394.64461835 -377 410 C-375.80117187 410.99966797 -375.80117187 410.99966797 -374.578125 412.01953125 C-354.6130766 429.22543476 -340.72299884 453.38773124 -338.69824219 479.96020508 C-338.55654816 483.39966379 -338.53271307 486.83435981 -338.55395508 490.27636719 C-338.56246962 492.3675399 -338.53355187 494.45596886 -338.50195312 496.546875 C-338.38075319 520.10293529 -347.62274994 543.27264191 -363 561 C-363.64195312 561.79792969 -364.28390625 562.59585938 -364.9453125 563.41796875 C-380.56012502 582.09043467 -404.98777433 594.63632422 -429 598 C-446.38865083 599.26132602 -463.38746242 598.58351342 -480 593 C-480.65838867 592.78069824 -481.31677734 592.56139648 -481.99511719 592.33544922 C-494.77978131 587.88382517 -505.94304558 579.91059558 -516 571 C-510.51833502 588.6464839 -504.20243496 605.4273458 -496 622 C-495.6405127 622.73138184 -495.28102539 623.46276367 -494.91064453 624.21630859 C-487.51116208 639.11277766 -478.19945636 652.89195342 -468 666 C-467.38382813 666.80953125 -466.76765625 667.6190625 -466.1328125 668.453125 C-462.69846047 672.94067832 -459.10989857 677.21011034 -455.28515625 681.37109375 C-454 683 -454 683 -454 685 C-453.34 685 -452.68 685 -452 685 C-452 685.66 -452 686.32 -452 687 C-451.34 687 -450.68 687 -450 687 C-448.51953125 688.5390625 -448.51953125 688.5390625 -446.8125 690.625 C-443.8899337 694.08787267 -440.84169098 696.97510908 -437.28515625 699.7734375 C-436.86105469 700.17820312 -436.43695312 700.58296875 -436 701 C-436 701.66 -436 702.32 -436 703 C-435.34 703 -434.68 703 -434 703 C-434 703.66 -434 704.32 -434 705 C-433.45601562 705.23074219 -432.91203125 705.46148438 -432.3515625 705.69921875 C-429.34577894 707.3618864 -426.93270629 709.54969908 -424.375 711.8125 C-411.85796813 722.61328278 -398.29972905 731.75203342 -384 740 C-383.02160156 740.60199219 -382.04320312 741.20398437 -381.03515625 741.82421875 C-373.13143642 746.64884882 -364.84329334 750.32522862 -356.35205078 753.96777344 C-353.79359965 755.09058135 -351.26888144 756.27679035 -348.73828125 757.4609375 C-331.0768108 765.50435047 -312.05563915 770.59853738 -293 774 C-291.97970703 774.19464844 -290.95941406 774.38929688 -289.90820312 774.58984375 C-273.50991719 777.64765941 -257.45456972 778.37141372 -240.8125 778.375 C-239.86236023 778.37690338 -238.91222046 778.37880676 -237.93328857 778.38076782 C-219.80571702 778.37665175 -202.36347245 776.63590488 -184.625 772.9375 C-183.90641815 772.78960022 -183.1878363 772.64170044 -182.44747925 772.48931885 C-163.67581837 768.58916283 -145.36357623 763.22193591 -128 755 C-126.22293472 754.18689112 -124.44558968 753.37439339 -122.66796875 752.5625 C-105.6097985 744.63733959 -88.69675189 735.92407205 -73.828125 724.29296875 C-72 723 -72 723 -70 723 C-70 722.34 -70 721.68 -70 721 C-68.5390625 719.7109375 -68.5390625 719.7109375 -66.625 718.375 C-65.99851562 717.92898438 -65.37203125 717.48296875 -64.7265625 717.0234375 C-63 716 -63 716 -61 716 C-61 715.34 -61 714.68 -61 714 C-59.50815058 712.69094636 -57.95437528 711.45200243 -56.375 710.25 C-53.22444712 707.80452836 -50.25828003 705.38178511 -47.5 702.5 C-46.675 701.675 -45.85 700.85 -45 700 C-44.34 700 -43.68 700 -43 700 C-43 699.34 -43 698.68 -43 698 C-41.01739574 696.31267723 -39.0167658 694.64633943 -37 693 C-36.67 692.34 -36.34 691.68 -36 691 C-35.34 691 -34.68 691 -34 691 C-34 690.34 -34 689.68 -34 689 C-33.34 689 -32.68 689 -32 689 C-31.65775391 688.17435547 -31.65775391 688.17435547 -31.30859375 687.33203125 C-29.6203073 684.32335361 -27.45736161 682.17169647 -25.0625 679.6875 C-18.70771893 672.91620117 -13.29074132 665.61931733 -8 658 C-7.50322754 657.28505371 -7.00645508 656.57010742 -6.49462891 655.83349609 C10.77957828 630.8026268 23.84595677 604.01893977 33 575 C33.33773437 573.96359375 33.67546875 572.9271875 34.0234375 571.859375 C36.42772509 564.05024891 38.06222736 556.13938073 39.625 548.125 C39.83125 547.07401123 40.0375 546.02302246 40.25 544.94018555 C40.87523501 541.63258069 41.45039791 538.32100489 42 535 C42.19126465 533.85281494 42.3825293 532.70562988 42.57958984 531.52368164 C44.44128458 518.78932296 44.39419248 506.03568615 44.375 493.1875 C44.37545319 492.01112976 44.37590637 490.83475952 44.37637329 489.6227417 C44.3578258 473.25325731 43.88745604 457.45597606 40.49951172 441.39208984 C40.05461893 439.26156219 39.68194548 437.13838129 39.34765625 434.98828125 C36.48874276 418.00297167 30.70868854 400.84170067 24 385 C23.51402344 383.81664062 23.02804687 382.63328125 22.52734375 381.4140625 C13.41870604 359.62125334 1.64563315 339.42314385 -12.6484375 320.64306641 C-16 316.20421182 -16 316.20421182 -16 314 C-16.66 314 -17.32 314 -18 314 C-19.91015625 311.91796875 -19.91015625 311.91796875 -22.0625 309.1875 C-22.77535156 308.29417969 -23.48820312 307.40085937 -24.22265625 306.48046875 C-26 304 -26 304 -27 301 C-27.99 300.67 -28.98 300.34 -30 300 C-30 299.34 -30 298.68 -30 298 C-30.66 298 -31.32 298 -32 298 C-33.41015625 296.53125 -33.41015625 296.53125 -35.0625 294.5 C-38.47703362 290.45154453 -42.22340388 287.06152129 -46.27734375 283.6640625 C-47.13005859 282.84035156 -47.13005859 282.84035156 -48 282 C-48 281.34 -48 280.68 -48 280 C-48.66 280 -49.32 280 -50 280 C-50 279.34 -50 278.68 -50 278 C-50.58338135 277.73050537 -51.1667627 277.46101074 -51.76782227 277.18334961 C-54.0086051 275.99543816 -55.77028179 274.68826986 -57.71484375 273.06640625 C-58.40126953 272.49986328 -59.08769531 271.93332031 -59.79492188 271.34960938 C-60.50197266 270.75986328 -61.20902344 270.17011719 -61.9375 269.5625 C-67.25357578 265.08848321 -67.25357578 265.08848321 -73.00390625 261.21484375 C-73.66261719 260.81394531 -74.32132813 260.41304687 -75 260 C-75 259.34 -75 258.68 -75 258 C-75.65742187 257.77828125 -76.31484375 257.5565625 -76.9921875 257.328125 C-81.00538181 255.55606518 -84.48254405 253.178977 -88.125 250.75 C-104.8281917 239.81389044 -123.07475559 230.46034521 -142 224 C-142.86544434 223.70383789 -143.73088867 223.40767578 -144.62255859 223.10253906 C-181.05174543 210.74855511 -216.71879548 206.42276316 -255 206 C-255 198.74 -255 191.48 -255 184 C-251.7 183.67 -248.4 183.34 -245 183 C-241.98165784 181.34681931 -241.98165784 181.34681931 -239.6875 179.0625 C-236.55014021 176.20516901 -234.04088845 174.36603486 -230 173 C-230 172.34 -230 171.68 -230 171 C-227.92813127 169.37275127 -225.85616952 167.86351116 -223.6875 166.375 C-222.40451111 165.47979237 -221.12196474 164.5839502 -219.83984375 163.6875 C-219.19515137 163.23890625 -218.55045898 162.7903125 -217.88623047 162.328125 C-214.23902864 159.76007194 -210.68018819 157.07126512 -207.109375 154.3984375 C-205 153 -205 153 -203 153 C-203 152.34 -203 151.68 -203 151 C-201.03223459 149.45653401 -199.06204089 148.03334348 -197 146.625 C-195.71099457 145.72574031 -194.42328437 144.82462185 -193.13671875 143.921875 C-192.45915527 143.44685547 -191.7815918 142.97183594 -191.08349609 142.48242188 C-187.61093446 140.01167027 -184.21301936 137.44353813 -180.8125 134.875 C-179.47283744 133.86694666 -178.13299698 132.85912969 -176.79296875 131.8515625 C-176.15407715 131.37106445 -175.51518555 130.89056641 -174.85693359 130.39550781 C-172.11928703 128.33813367 -169.37799317 126.28685508 -166.625 124.25 C-165.77164062 123.61578125 -164.91828125 122.9815625 -164.0390625 122.328125 C-162 121 -162 121 -160 121 C-160 120.34 -160 119.68 -160 119 C-157.92813127 117.37275127 -155.85616952 115.86351116 -153.6875 114.375 C-152.40451111 113.47979237 -151.12196474 112.5839502 -149.83984375 111.6875 C-149.19515137 111.23890625 -148.55045898 110.7903125 -147.88623047 110.328125 C-144.23902864 107.76007194 -140.68018819 105.07126512 -137.109375 102.3984375 C-135 101 -135 101 -133 101 C-133 100.34 -133 99.68 -133 99 C-131.01167744 97.43446405 -129.02229791 95.99007337 -126.9375 94.5625 C-125.65932647 93.67176244 -124.38201341 92.77978914 -123.10546875 91.88671875 C-122.43563965 91.41927246 -121.76581055 90.95182617 -121.07568359 90.47021484 C-118.96194601 88.97304621 -116.87822652 87.44160614 -114.80078125 85.89453125 C-113.78479858 85.13837524 -113.78479858 85.13837524 -112.74829102 84.36694336 C-111.42997682 83.38267726 -110.11399985 82.3952719 -108.80053711 81.40454102 C-104.21989312 78 -104.21989312 78 -102 78 C-102 77.34 -102 76.68 -102 76 C-99.8828125 74.2734375 -99.8828125 74.2734375 -97.125 72.375 C-95.76761719 71.42753906 -95.76761719 71.42753906 -94.3828125 70.4609375 C-92 69 -92 69 -90 69 C-90 68.34 -90 67.68 -90 67 C-87.9055032 65.36570249 -85.82217909 63.85832766 -83.625 62.375 C-82.72007812 61.74464844 -82.72007812 61.74464844 -81.796875 61.1015625 C-77.26537135 58 -77.26537135 58 -75 58 C-75 57.34 -75 56.68 -75 56 C-72.8828125 54.2734375 -72.8828125 54.2734375 -70.125 52.375 C-68.76761719 51.42753906 -68.76761719 51.42753906 -67.3828125 50.4609375 C-65 49 -65 49 -63 49 C-63 48.34 -63 47.68 -63 47 C-60.94866844 45.39474202 -58.8959218 43.90687503 -56.75 42.4375 C-55.44970573 41.52850863 -54.15023911 40.61833228 -52.8515625 39.70703125 C-52.19833008 39.25021973 -51.54509766 38.7934082 -50.87207031 38.32275391 C-46.16456672 34.99656006 -41.59714742 31.47602936 -37 28 C-29.0871696 22.02155615 -21.16266316 16.06011827 -13.125 10.25 C-12.53605957 9.81953369 -11.94711914 9.38906738 -11.34033203 8.94555664 C-7.23373972 6 -7.23373972 6 -5 6 C-5 5.34 -5 4.68 -5 4 C-3.35 3.34 -1.7 2.68 0 2 C0 1.34 0 0.68 0 0 Z " fill="#3F2D69" transform="translate(1734,427)"/>
<path d="M0 0 C9.9 0 19.8 0 30 0 C30 20.79 30 41.58 30 63 C33.465 57.06 33.465 57.06 37 51 C38.35360914 49.01224689 39.73788908 47.04386641 41.1875 45.125 C43.34926666 42.23567551 45.45162062 39.36559664 47.375 36.3125 C47.91125 35.549375 48.4475 34.78625 49 34 C49.66 34 50.32 34 51 34 C51.2578125 33.28457031 51.515625 32.56914063 51.78125 31.83203125 C53.07384765 28.82839889 54.6277709 26.36494628 56.5 23.6875 C57.41265625 22.36298828 57.41265625 22.36298828 58.34375 21.01171875 C59.16359375 20.01591797 59.16359375 20.01591797 60 19 C60.66 19 61.32 19 62 19 C62.226875 18.319375 62.45375 17.63875 62.6875 16.9375 C64.31226146 13.3011291 66.32803257 9.97170737 69 7 C69.66 7 70.32 7 71 7 C71.28875 6.21625 71.5775 5.4325 71.875 4.625 C73 2 73 2 75 0 C77.58103306 -0.17502995 80.05308163 -0.23162279 82.6328125 -0.1953125 C83.76056595 -0.19106766 83.76056595 -0.19106766 84.91110229 -0.18673706 C87.31589578 -0.17552874 89.72031881 -0.15042352 92.125 -0.125 C93.75390088 -0.11497102 95.38280758 -0.10584503 97.01171875 -0.09765625 C101.00795556 -0.07558735 105.00391494 -0.04105351 109 0 C108.67 1.32 108.34 2.64 108 4 C107.34 4 106.68 4 106 4 C105.773125 4.680625 105.54625 5.36125 105.3125 6.0625 C103.68773854 9.6988709 101.67196743 13.02829263 99 16 C98.34 16 97.68 16 97 16 C96.7421875 16.71542969 96.484375 17.43085937 96.21875 18.16796875 C94.92615235 21.17160111 93.3722291 23.63505372 91.5 26.3125 C90.8915625 27.19550781 90.283125 28.07851562 89.65625 28.98828125 C89.1096875 29.65214844 88.563125 30.31601563 88 31 C87.34 31 86.68 31 86 31 C85.773125 31.680625 85.54625 32.36125 85.3125 33.0625 C83.68773854 36.6988709 81.67196743 40.02829263 79 43 C78.34 43 77.68 43 77 43 C76.61328125 44.07314453 76.61328125 44.07314453 76.21875 45.16796875 C74.92615235 48.17160111 73.3722291 50.63505372 71.5 53.3125 C70.8915625 54.19550781 70.283125 55.07851562 69.65625 55.98828125 C69.1096875 56.65214844 68.563125 57.31601563 68 58 C67.34 58 66.68 58 66 58 C64.67973315 60.71198412 64.67973315 60.71198412 64 64 C65.10901556 66.77819636 65.10901556 66.77819636 67.1875 69.375 C68.32251953 70.95474609 68.32251953 70.95474609 69.48046875 72.56640625 C69.89345215 73.12602051 70.30643555 73.68563477 70.73193359 74.26220703 C72.43889725 76.60147683 74.06272453 78.9933049 75.69067383 81.38793945 C79.46928861 86.9420734 83.3123311 92.45190283 87.15625 97.9609375 C87.87425781 98.99049561 88.59226562 100.02005371 89.33203125 101.08081055 C90.75493913 103.11983113 92.17936891 105.15779069 93.60546875 107.19458008 C94.26160156 108.13454834 94.91773438 109.0745166 95.59375 110.04296875 C96.17833984 110.87852295 96.76292969 111.71407715 97.36523438 112.57495117 C102 119.45026882 102 119.45026882 102 122 C102.66 122 103.32 122 104 122 C105.80438255 124.40485739 107.4794258 126.80265363 109.125 129.3125 C109.59292969 130.00279297 110.06085938 130.69308594 110.54296875 131.40429688 C110.98511719 132.07138672 111.42726563 132.73847656 111.8828125 133.42578125 C112.49213623 134.34484253 112.49213623 134.34484253 113.11376953 135.2824707 C114 137 114 137 114 140 C109.0016649 140.27320615 104.00771617 140.47204372 99.00366211 140.60424805 C97.30464984 140.65936775 95.60615489 140.73429677 93.90893555 140.82983398 C79.8248318 141.60241462 79.8248318 141.60241462 75.35595703 137.67822266 C73.51150117 134.82952585 72.19180303 132.17229527 71 129 C70.61900146 128.05600342 70.23800293 127.11200684 69.84545898 126.1394043 C69.56645752 125.43340088 69.28745605 124.72739746 69 124 C68.34 124 67.68 124 67 124 C65.765625 122.33203125 65.765625 122.33203125 64.25 119.8125 C61.72124693 115.70395023 59.12202913 111.66530838 56.42578125 107.6640625 C55.79188477 106.72328857 55.15798828 105.78251465 54.50488281 104.81323242 C53.2142929 102.90249102 51.92069022 100.99378095 50.62402344 99.0871582 C50.02750977 98.20116943 49.43099609 97.31518066 48.81640625 96.40234375 C48.27443604 95.60304443 47.73246582 94.80374512 47.17407227 93.98022461 C46 92 46 92 46 90 C45.34 90 44.68 90 44 90 C42.375 88.5 42.375 88.5 41 87 C40.75378906 87.57766113 40.50757813 88.15532227 40.25390625 88.75048828 C39 91 39 91 37.08984375 92.87060547 C30.75195475 99.11791212 30.11063071 104.62626909 29.95117188 113.10369873 C29.94127288 115.77822109 29.96962075 118.45066168 30 121.125 C29.99189642 122.95835288 29.98020848 124.7916936 29.96484375 126.625 C29.92854505 131.08570714 29.96589937 135.53708045 30 140 C20.1 140 10.2 140 0 140 C0 93.8 0 47.6 0 0 Z " fill="#3F2D69" transform="translate(1113,1449)"/>
<path d="M0 0 C62.68 0 62.68 0 83 12 C83 12.66 83 13.32 83 14 C83.5775 14.23589844 84.155 14.47179688 84.75 14.71484375 C92.36763803 19.06589047 97.27222907 28.70101805 99.52856445 36.92700195 C103.42934044 52.80761075 102.30114363 70.10243095 94.05078125 84.37109375 C84.38420888 98.27221488 71.00671793 104.48948823 54.71411133 107.62060547 C49.93642851 108.28845823 45.18874429 108.20788178 40.375 108.125 C36.95125 108.08375 33.5275 108.0425 30 108 C30 118.56 30 129.12 30 140 C20.1 140 10.2 140 0 140 C0 93.8 0 47.6 0 0 Z M30 27 C30 45.15 30 63.3 30 82 C41.73066111 82 50.47638456 81.37691058 61 77 C61 76.34 61 75.68 61 75 C61.5775 74.814375 62.155 74.62875 62.75 74.4375 C66.58548809 71.98704927 67.9947826 68.0104348 70 64 C70.29123419 60.96554055 70.27798167 57.92181768 70.3125 54.875 C70.34150391 54.04484375 70.37050781 53.2146875 70.40039062 52.359375 C70.47087395 45.44116541 68.77460035 40.45099545 64.4296875 35.046875 C53.49213759 25.92308965 45.28845686 27 30 27 Z " fill="#3F2D69" transform="translate(253,1449)"/>
<path d="M0 0 C1.98828125 1.31640625 1.98828125 1.31640625 4.73828125 3.69140625 C4.73828125 4.35140625 4.73828125 5.01140625 4.73828125 5.69140625 C5.39828125 5.69140625 6.05828125 5.69140625 6.73828125 5.69140625 C6.73828125 6.35140625 6.73828125 7.01140625 6.73828125 7.69140625 C7.39828125 7.69140625 8.05828125 7.69140625 8.73828125 7.69140625 C10.28125 9.5546875 10.28125 9.5546875 11.92578125 12.00390625 C12.47621094 12.80441406 13.02664063 13.60492187 13.59375 14.4296875 C13.97144531 15.17605469 14.34914063 15.92242188 14.73828125 16.69140625 C13.57326609 20.18645172 12.92508073 20.48336661 9.87890625 22.3203125 C9.09257813 22.79791016 8.30625 23.27550781 7.49609375 23.76757812 C6.66851563 24.25806641 5.8409375 24.74855469 4.98828125 25.25390625 C4.17617188 25.74826172 3.3640625 26.24261719 2.52734375 26.75195312 C-1.3063159 29.05901703 -5.00944592 31.23076782 -9.26171875 32.69140625 C-9.94234375 31.61890625 -10.62296875 30.54640625 -11.32421875 29.44140625 C-14.08210309 25.6435376 -16.74275574 23.14548491 -21.26171875 21.69140625 C-26.30041017 21.06846944 -31.88711384 20.82057178 -36.26171875 23.69140625 C-38.5914337 27.5742645 -38.6587917 31.24418921 -38.26171875 35.69140625 C-35.97590149 41.69167656 -30.18517029 44.32705653 -24.63037109 46.91943359 C-21.74634472 48.15962037 -18.85044573 49.36704281 -15.94921875 50.56640625 C-4.87131755 55.26961872 4.95384804 60.29739229 13.73828125 68.69140625 C13.73828125 69.35140625 13.73828125 70.01140625 13.73828125 70.69140625 C14.39828125 70.69140625 15.05828125 70.69140625 15.73828125 70.69140625 C16.72497884 72.583331 17.70234145 74.48012603 18.67578125 76.37890625 C19.22105469 77.43464844 19.76632812 78.49039062 20.328125 79.578125 C24.54471726 88.88733284 24.33433573 102.46775956 20.92578125 112.00390625 C19.49100082 115.41769418 17.81030656 118.6187178 15.73828125 121.69140625 C15.07828125 121.69140625 14.41828125 121.69140625 13.73828125 121.69140625 C13.50882813 122.27921875 13.279375 122.86703125 13.04296875 123.47265625 C11.38494306 126.29229275 9.61624963 127.43589018 6.86328125 129.19140625 C5.99960937 129.75859375 5.1359375 130.32578125 4.24609375 130.91015625 C-5.30481651 135.76006168 -14.04038418 137.36384748 -24.69921875 137.19140625 C-26.47872925 137.1754541 -26.47872925 137.1754541 -28.29418945 137.15917969 C-36.59324146 136.97860402 -43.65909255 136.21989783 -51.26171875 132.69140625 C-52.39673828 132.20607422 -52.39673828 132.20607422 -53.5546875 131.7109375 C-63.86190083 126.97310023 -72.62233188 119.18045483 -77.26171875 108.69140625 C-76.41102163 105.64806726 -75.30143213 104.71888622 -72.6875 102.91015625 C-71.66011719 102.34296875 -70.63273438 101.77578125 -69.57421875 101.19140625 C-68.4965625 100.59328125 -67.41890625 99.99515625 -66.30859375 99.37890625 C-65.303125 98.82203125 -64.29765625 98.26515625 -63.26171875 97.69140625 C-61.94813382 96.85978414 -60.6353836 96.02683872 -59.32421875 95.19140625 C-56.26171875 93.69140625 -56.26171875 93.69140625 -53.44921875 93.62890625 C-51.26171875 94.69140625 -51.26171875 94.69140625 -49.94921875 97.25390625 C-49.72234375 98.05828125 -49.49546875 98.86265625 -49.26171875 99.69140625 C-48.60171875 99.69140625 -47.94171875 99.69140625 -47.26171875 99.69140625 C-47.26171875 100.35140625 -47.26171875 101.01140625 -47.26171875 101.69140625 C-46.72546875 101.93890625 -46.18921875 102.18640625 -45.63671875 102.44140625 C-43.26171875 103.69140625 -43.26171875 103.69140625 -40.19921875 105.75390625 C-35.46743388 108.87487074 -31.38554503 108.90425202 -25.88671875 108.94140625 C-25.13132812 108.96203125 -24.3759375 108.98265625 -23.59765625 109.00390625 C-18.89489788 109.03679267 -16.20317289 108.49618635 -12.26171875 105.69140625 C-11.60171875 105.69140625 -10.94171875 105.69140625 -10.26171875 105.69140625 C-8.25730453 101.55730191 -7.85323239 98.26645344 -8.26171875 93.69140625 C-11.09427862 87.28087601 -16.28655922 84.45351464 -22.57421875 81.94140625 C-39.01149239 75.15276817 -57.21438573 67.61151678 -66.13671875 51.25390625 C-70.0831355 38.75691988 -71.16034327 26.2597476 -65.0078125 14.2421875 C-59.95352924 6.13054488 -53.13431745 0.25056656 -44.26171875 -3.30859375 C-43.01648438 -3.84419922 -43.01648438 -3.84419922 -41.74609375 -4.390625 C-28.57343559 -7.86100019 -11.85404103 -6.85855569 0 0 Z " fill="#3F2D69" transform="translate(899.26171875,1453.30859375)"/>
<path d="M0 0 C2.29296875 0.09765625 2.29296875 0.09765625 5 1 C6.3869015 3.1909927 7.34211559 5.06784522 8.3125 7.4375 C8.60318359 8.10201172 8.89386719 8.76652344 9.19335938 9.45117188 C9.81846048 10.88319754 10.4355399 12.31874604 11.04541016 13.75732422 C12.32498312 16.76350253 13.65609914 19.74565618 14.98730469 22.72924805 C15.66628455 24.25171471 16.34268997 25.77533195 17.01660156 27.30004883 C19.14051953 32.10348939 21.3233191 36.87430538 23.5625 41.625 C25.96081898 46.71464526 28.2622646 51.83776735 30.5 57 C34.48797831 66.19099176 38.74013847 75.24979467 43.04296875 84.296875 C46.44516179 91.46412976 49.73061095 98.63133928 52.7265625 105.98046875 C54.21348826 109.50621602 55.81201079 112.97421459 57.4375 116.4375 C57.73156738 117.06519287 58.02563477 117.69288574 58.32861328 118.33959961 C59.79825361 121.46792615 61.2821381 124.58881954 62.78125 127.703125 C63.3278125 128.85296875 63.874375 130.0028125 64.4375 131.1875 C64.93121094 132.21230469 65.42492187 133.23710938 65.93359375 134.29296875 C67 137 67 137 67 141 C56.77 141 46.54 141 36 141 C30 128 30 128 30 125 C2.775 125.495 2.775 125.495 -25 126 C-26.65 130.29 -28.3 134.58 -30 139 C-32 141 -32 141 -34.79736328 141.22705078 C-35.95993652 141.21657715 -37.12250977 141.20610352 -38.3203125 141.1953125 C-40.20556641 141.18564453 -40.20556641 141.18564453 -42.12890625 141.17578125 C-43.44761719 141.15902344 -44.76632812 141.14226562 -46.125 141.125 C-47.46483721 141.11496983 -48.80468152 141.10584404 -50.14453125 141.09765625 C-53.42986573 141.07402075 -56.71484465 141.04107234 -60 141 C-58.94987178 135.56916385 -57.67985236 130.79089497 -55.1875 125.8125 C-51.49590828 118.22562863 -48.1459396 110.49883853 -44.8125 102.75 C-40.46499477 92.6554437 -36.05346261 82.59413202 -31.5625 72.5625 C-27.95620956 64.50001795 -24.49551386 56.41853259 -21.28515625 48.19140625 C-19.53329432 43.84103788 -17.55497195 39.61156786 -15.5625 35.3671875 C-12.91508942 29.66201771 -10.42862911 23.88666056 -7.921875 18.11865234 C-6.30807387 14.40981595 -4.68468134 10.70517666 -3.0625 7 C-2.47001126 5.64585119 -1.87755943 4.29168624 -1.28515625 2.9375 C-0.86105469 1.968125 -0.43695312 0.99875 0 0 Z M1 57 C0.72905518 57.8521106 0.72905518 57.8521106 0.45263672 58.72143555 C-2.79460409 68.86829381 -6.03827999 78.82597346 -10.73828125 88.40625 C-13.25406531 93.48037665 -13.25406531 93.48037665 -14 99 C-3.44 99 7.12 99 18 99 C17.01007809 95.04031235 15.69043938 91.30851272 14.25 87.5 C13.98340576 86.79020996 13.71681152 86.08041992 13.44213867 85.34912109 C11.82145911 81.06682593 10.11180852 76.8361476 8.3125 72.625 C6.14213596 67.51414274 4.45719107 62.354881 3 57 C2.34 57 1.68 57 1 57 Z " fill="#3F2D69" transform="translate(580,1448)"/>
<path d="M0 0 C1.65 0 3.3 0 5 0 C5.27972656 0.69222656 5.55945312 1.38445312 5.84765625 2.09765625 C9.80755511 11.76184672 14.20876478 21.20060071 18.734375 30.609375 C23.72046366 41.02656921 28.32797348 51.59798259 32.92352295 62.19134521 C36.85375274 71.23921145 40.88677104 80.19081364 45.44921875 88.94140625 C48.01449703 94.00088457 50.10826153 99.25123247 52.25 104.5 C54.22140019 109.24442395 56.31758538 113.91285414 58.5 118.5625 C58.79624268 119.19454346 59.09248535 119.82658691 59.39770508 120.4777832 C60.77467664 123.40938785 62.16077681 126.33605981 63.55859375 129.2578125 C64.01363281 130.22460938 64.46867187 131.19140625 64.9375 132.1875 C65.33839844 133.02667969 65.73929688 133.86585938 66.15234375 134.73046875 C67 137 67 137 67 141 C56.77 141 46.54 141 36 141 C30 127 30 127 30 125 C11.85 125 -6.3 125 -25 125 C-25.99 127.97 -26.98 130.94 -28 134 C-28.99 136.31 -29.98 138.62 -31 141 C-40.57 141 -50.14 141 -60 141 C-59.22711581 137.13557907 -58.41711725 134.2792707 -56.92578125 130.71875 C-56.50876953 129.71908203 -56.09175781 128.71941406 -55.66210938 127.68945312 C-55.21673828 126.63693359 -54.77136719 125.58441406 -54.3125 124.5 C-53.85552734 123.41138672 -53.39855469 122.32277344 -52.92773438 121.20117188 C-50.2842863 114.9356375 -47.53336223 108.74097016 -44.625 102.59375 C-42.29698668 97.44525899 -40.15738935 92.22185834 -38 87 C-34.94254275 79.6029078 -31.82504747 72.27244714 -28.4140625 65.03125 C-26.78682391 61.54302583 -25.2283661 58.02694858 -23.6875 54.5 C-23.40197266 53.84644531 -23.11644531 53.19289063 -22.82226562 52.51953125 C-21.0953708 48.55182979 -19.39023702 44.57521041 -17.6953125 40.59375 C-17.10230347 39.2025293 -17.10230347 39.2025293 -16.49731445 37.78320312 C-15.72782668 35.9756283 -14.96060485 34.16708657 -14.19604492 32.35742188 C-12.23459421 27.74723874 -10.17884971 23.23020516 -7.86987305 18.78295898 C-6.65207653 16.28686919 -5.73235944 13.70822816 -4.79296875 11.09765625 C-3.36689296 7.32522917 -1.67277149 3.66820957 0 0 Z M2 56 C0.43098823 60.16501306 -1.12641062 64.33320321 -2.6484375 68.515625 C-5.61008793 76.64359679 -8.60606981 84.71595535 -12.0546875 92.65234375 C-13.15437334 95.2282366 -13.15437334 95.2282366 -14 99 C-3.11 99 7.78 99 19 99 C15.51153971 89.83862227 15.51153971 89.83862227 11.5625 80.875 C7.83887429 72.91782532 5.53097878 64.39310831 3 56 C2.67 56 2.34 56 2 56 Z " fill="#3F2D6A" transform="translate(1465,1448)"/>
<path d="M0 0 C9.9 0 19.8 0 30 0 C30 37.29 30 74.58 30 113 C50.46 113 70.92 113 92 113 C92 121.91 92 130.82 92 140 C61.64 140 31.28 140 0 140 C0 93.8 0 47.6 0 0 Z " fill="#3F2D6A" transform="translate(1720,1449)"/>
<path d="M0 0 C1.01980957 0.00499512 2.03961914 0.00999023 3.09033203 0.01513672 C10.86450696 0.19512321 17.03598778 1.39699253 23.75 5.5 C24.64460937 6.02722656 25.53921875 6.55445313 26.4609375 7.09765625 C28.66710134 8.47905423 30.77746393 9.80142727 32.75 11.5 C32.75 12.16 32.75 12.82 32.75 13.5 C33.41 13.5 34.07 13.5 34.75 13.5 C34.75 14.16 34.75 14.82 34.75 15.5 C35.41 15.5 36.07 15.5 36.75 15.5 C38.40625 17.94921875 38.40625 17.94921875 40.25 21.1875 C40.8584375 22.24324219 41.466875 23.29898437 42.09375 24.38671875 C47.94170687 35.37922258 48.58192154 49.43937273 45.5625 61.5 C43.95891864 66.53432031 41.54223577 71.03021546 38.75 75.5 C38.09 75.5 37.43 75.5 36.75 75.5 C36.49347656 76.0878125 36.23695313 76.675625 35.97265625 77.28125 C32.16578057 84.18957391 24.89859366 87.90923451 17.75 90.5 C17.00234375 90.7990625 16.2546875 91.098125 15.484375 91.40625 C4.53831483 95.32073509 -7.46017844 94.51562938 -18.25 90.5 C-19.29027344 90.11714844 -19.29027344 90.11714844 -20.3515625 89.7265625 C-31.3060441 84.96943702 -38.65423154 75.43469632 -44 65.125 C-47.47930412 55.03501806 -48.28961302 45.06518819 -45.6875 34.6875 C-45.51621582 34.00042969 -45.34493164 33.31335937 -45.16845703 32.60546875 C-43.4279016 26.22095064 -40.59281154 20.54878583 -36.25 15.5 C-35.59 15.5 -34.93 15.5 -34.25 15.5 C-34.25 14.84 -34.25 14.18 -34.25 13.5 C-33.59 13.5 -32.93 13.5 -32.25 13.5 C-32.25 12.84 -32.25 12.18 -32.25 11.5 C-31.59 11.5 -30.93 11.5 -30.25 11.5 C-30.25 10.84 -30.25 10.18 -30.25 9.5 C-28.58726601 8.55554264 -26.91956655 7.61982589 -25.25 6.6875 C-24.321875 6.16542969 -23.39375 5.64335938 -22.4375 5.10546875 C-14.78765834 1.2524235 -8.61436499 -0.05510255 0 0 Z M-19.3828125 26.296875 C-25.09232119 33.03361747 -27.01660219 41.06989231 -26.609375 49.74609375 C-25.73423105 56.45235985 -22.70502424 61.78133919 -19.25 67.5 C-18.59 67.5 -17.93 67.5 -17.25 67.5 C-17.25 68.16 -17.25 68.82 -17.25 69.5 C-10.13299692 74.26224157 -3.61610146 76.2358366 4.98046875 75.2421875 C9.80162892 74.21640874 13.6263138 72.07730387 17.75 69.5 C17.75 68.84 17.75 68.18 17.75 67.5 C18.41 67.5 19.07 67.5 19.75 67.5 C20.73414433 65.58588443 21.71213349 63.6686033 22.6875 61.75 C23.50541016 60.14898438 23.50541016 60.14898438 24.33984375 58.515625 C27.92005876 50.85932031 27.67575472 43.39469871 24.8125 35.5 C23.86642942 33.11278248 22.8979977 30.7959954 21.75 28.5 C21.09 28.5 20.43 28.5 19.75 28.5 C19.564375 27.943125 19.37875 27.38625 19.1875 26.8125 C16.85399723 23.05860424 13.11241302 20.3109776 8.91796875 18.87109375 C-2.08180783 16.98824911 -11.12612452 18.65060364 -19.3828125 26.296875 Z " fill="#3F2D69" transform="translate(533.25,1731.5)"/>
<path d="M0 0 C5.16765624 3.55953944 5.16765624 3.55953944 6.28515625 6.44604492 C6.37152344 7.13674072 6.45789062 7.82743652 6.546875 8.5390625 C4.71667186 10.87848747 2.97672157 12.80697698 0.859375 14.8515625 C0.31603516 15.41423828 -0.22730469 15.97691406 -0.78710938 16.55664062 C-2.40234375 18.15234375 -2.40234375 18.15234375 -5.453125 20.5390625 C-7.64379883 20.18823242 -7.64379883 20.18823242 -9.453125 19.5390625 C-9.453125 18.8790625 -9.453125 18.2190625 -9.453125 17.5390625 C-11.11297298 16.85559568 -12.78149305 16.19317935 -14.453125 15.5390625 C-15.7215625 14.9821875 -15.7215625 14.9821875 -17.015625 14.4140625 C-25.26838626 12.31335963 -32.7868498 12.68612219 -40.2578125 16.9140625 C-45.25363263 20.61203612 -48.60949039 25.62785737 -50.453125 31.5390625 C-51.52534184 40.28329049 -51.74845054 49.84379523 -47.08203125 57.5546875 C-44.32875355 60.90880038 -41.17964585 63.34611981 -37.453125 65.5390625 C-36.84597656 65.90515625 -36.23882813 66.27125 -35.61328125 66.6484375 C-26.88263405 70.24805334 -16.36451162 68.38654509 -7.453125 66.5390625 C-7.453125 62.5790625 -7.453125 58.6190625 -7.453125 54.5390625 C-14.383125 54.5390625 -21.313125 54.5390625 -28.453125 54.5390625 C-28.453125 48.5990625 -28.453125 42.6590625 -28.453125 36.5390625 C-15.253125 36.5390625 -2.053125 36.5390625 11.546875 36.5390625 C11.73081514 42.28974649 11.88990285 48.03020864 11.98632812 53.78149414 C12.0265159 55.73627313 12.08107912 57.69081227 12.15039062 59.64477539 C12.2476626 62.45779499 12.29284362 65.26763476 12.328125 68.08203125 C12.36941528 68.95304977 12.41070557 69.8240683 12.45324707 70.72148132 C12.45509608 73.23214338 12.36562363 75.16295113 11.546875 77.5390625 C7.32765066 81.62507124 1.88756976 83.33597443 -3.703125 84.7890625 C-4.88390625 85.10359375 -6.0646875 85.418125 -7.28125 85.7421875 C-8.32796875 86.00515625 -9.3746875 86.268125 -10.453125 86.5390625 C-11.41931763 86.80493164 -11.41931763 86.80493164 -12.4050293 87.07617188 C-27.19789924 90.41951213 -42.8425766 86.34139901 -55.453125 78.5390625 C-64.43470033 71.35677627 -70.16965898 61.79764896 -72.453125 50.5390625 C-73.92370963 36.66293552 -72.54735369 23.06202417 -64.0703125 11.52734375 C-49.16116971 -6.80297915 -20.68885456 -12.32106944 0 0 Z " fill="#3F2D69" transform="translate(1094.453125,1737.4609375)"/>
<path d="M0 0 C1.83304688 -0.01836914 1.83304688 -0.01836914 3.703125 -0.03710938 C17.79839779 -0.05950652 31.38900197 1.09870158 42.75 10.1875 C49.48765088 17.58570489 52.32295011 25.10851702 52.1875 35.0625 C52.17920166 35.85116455 52.17090332 36.6398291 52.16235352 37.45239258 C51.92066232 45.80837117 50.13153865 52.00314041 44.25 58.125 C41.87297172 60.32375116 39.35863206 62.27107074 36.75 64.1875 C42.25890625 72.96161889 47.97956064 81.5840884 53.75 90.1875 C53.42 90.8475 53.09 91.5075 52.75 92.1875 C33.20045805 93.81308555 33.20045805 93.81308555 27.9765625 90.34765625 C26.19985603 87.70762058 24.98639003 85.1176281 23.75 82.1875 C22.48912341 80.14731365 21.19750853 78.12578518 19.875 76.125 C19.01261719 74.74634766 19.01261719 74.74634766 18.1328125 73.33984375 C16.924092 71.29069247 16.924092 71.29069247 15.75 70.1875 C12.45 70.1875 9.15 70.1875 5.75 70.1875 C5.75 77.4475 5.75 84.7075 5.75 92.1875 C-0.85 92.1875 -7.45 92.1875 -14.25 92.1875 C-14.27254978 80.33984487 -14.29091436 68.49220389 -14.30181217 56.6445322 C-14.30704131 51.14379138 -14.31413951 45.64306595 -14.32543945 40.14233398 C-14.33626725 34.8385344 -14.3422766 29.53474965 -14.34487724 24.23093987 C-14.34673169 22.20264388 -14.35035267 20.17434874 -14.35573006 18.14605904 C-14.36293906 15.31553486 -14.363991 12.48507282 -14.36352539 9.65454102 C-14.36712067 8.80721909 -14.37071594 7.95989716 -14.37442017 7.0868988 C-14.3567945 -2.74822544 -8.4853569 0.00431167 0 0 Z M5.75 19.1875 C5.75 30.0775 5.75 40.9675 5.75 52.1875 C18.45058616 52.44353436 18.45058616 52.44353436 28.75 46.625 C31.80883506 41.36762724 32.41417495 36.54862779 31.234375 30.578125 C30.55079556 28.29467878 29.93724745 26.25576044 28.75 24.1875 C27.76 23.8575 26.77 23.5275 25.75 23.1875 C25.75 22.5275 25.75 21.8675 25.75 21.1875 C19.32633574 18.25902331 19.32633574 18.25902331 5.75 19.1875 Z " fill="#3F2D6A" transform="translate(1755.25,1731.8125)"/>
<path d="M0 0 C5.60651629 1.12130326 5.60651629 1.12130326 8.6875 4.5 C11.0600452 7.12443635 11.0600452 7.12443635 14 9 C14 9.66 14 10.32 14 11 C14.66 11 15.32 11 16 11 C16 11.66 16 12.32 16 13 C16.66 13 17.32 13 18 13 C18 13.66 18 14.32 18 15 C18.55816406 15.22945312 19.11632813 15.45890625 19.69140625 15.6953125 C22.62595608 17.35375521 24.60140353 19.44891522 26.9375 21.875 C29.48158652 24.50952545 31.92568121 26.94207051 34.81640625 29.1953125 C35.53699219 29.79085938 36.25757813 30.38640625 37 31 C37 31.66 37 32.32 37 33 C37.66 33 38.32 33 39 33 C39 33.66 39 34.32 39 35 C40.32 35.66 41.64 36.32 43 37 C46.96 40.96 50.92 44.92 55 49 C55.33 32.83 55.66 16.66 56 0 C61.94 0 67.88 0 74 0 C75.85581966 1.85581966 75.12004366 4.49398306 75.12442017 6.96286011 C75.11902725 8.24786911 75.11902725 8.24786911 75.11352539 9.55883789 C75.11367142 10.45631241 75.11381744 11.35378693 75.1139679 12.27845764 C75.11326842 15.25988134 75.10547441 18.2412434 75.09765625 21.22265625 C75.09579219 23.28388942 75.09436823 25.34512304 75.09336853 27.40635681 C75.08954237 32.8430401 75.07971126 38.27969686 75.06866455 43.71636963 C75.05845253 49.25947714 75.05387136 54.80258892 75.04882812 60.34570312 C75.03808908 71.23048043 75.02101149 82.11523802 75 93 C73.68 93 72.36 93 71 93 C71 92.34 71 91.68 71 91 C70.41734375 90.74605469 69.8346875 90.49210937 69.234375 90.23046875 C66.75811967 88.86679667 65.19479374 87.35774797 63.25 85.3125 C59.95763642 81.92851221 56.53819766 78.81087965 52.95703125 75.73828125 C50.32904611 73.40404295 47.88411105 70.91235704 45.4453125 68.3828125 C44.02890223 66.89145515 44.02890223 66.89145515 42 66 C42 65.34 42 64.68 42 64 C41.34 64 40.68 64 40 64 C40 63.34 40 62.68 40 62 C39.01 61.67 38.02 61.34 37 61 C37 60.34 37 59.68 37 59 C36.4112207 58.73719238 35.82244141 58.47438477 35.21582031 58.20361328 C32.89660759 56.94383819 31.39050597 55.61995979 29.546875 53.7421875 C28.928125 53.11699219 28.309375 52.49179688 27.671875 51.84765625 C26.72054688 50.87119141 26.72054688 50.87119141 25.75 49.875 C25.1003125 49.21628906 24.450625 48.55757812 23.78125 47.87890625 C22.18288273 46.25703357 20.58938103 44.6306719 19 43 C19.00222061 43.59912704 19.00444122 44.19825409 19.00672913 44.8155365 C19.02878165 51.02797858 19.04390646 57.24040962 19.05493164 63.45288086 C19.05997333 65.77417451 19.06680651 68.09546497 19.07543945 70.41674805 C19.08751225 73.74528795 19.09322979 77.07378602 19.09765625 80.40234375 C19.10281754 81.44712387 19.10797882 82.49190399 19.11329651 83.56834412 C19.11340981 85.00972496 19.11340981 85.00972496 19.11352539 86.48022461 C19.115746 87.33071884 19.11796661 88.18121307 19.12025452 89.05747986 C19 91 19 91 18 92 C12.06 92 6.12 92 0 92 C0 61.64 0 31.28 0 0 Z " fill="#3F2D6A" transform="translate(1408,1732)"/>
<path d="M0 0 C5.62178086 1.12435617 5.62178086 1.12435617 8.26953125 3.9140625 C8.84429199 4.50695068 9.41905273 5.09983887 10.01123047 5.71069336 C10.60564941 6.34241455 11.20006836 6.97413574 11.8125 7.625 C13.05939619 8.91190442 14.30807907 10.19708022 15.55859375 11.48046875 C16.45167236 12.40158447 16.45167236 12.40158447 17.36279297 13.34130859 C20.40718382 16.4256497 23.67940699 19.22096293 27 22 C28.50473316 23.26522546 30.00475701 24.53607305 31.5 25.8125 C32.1703125 26.37582031 32.840625 26.93914062 33.53125 27.51953125 C35 29 35 29 35 31 C35.66 31 36.32 31 37 31 C37 31.66 37 32.32 37 33 C37.66 33 38.32 33 39 33 C39 33.66 39 34.32 39 35 C39.55171875 35.226875 40.1034375 35.45375 40.671875 35.6875 C43.68692417 37.38725926 45.81230369 39.54804816 48.25 42 C49.58804688 43.3303125 49.58804688 43.3303125 50.953125 44.6875 C53 47 53 47 53 49 C53.66 49 54.32 49 55 49 C55.33 32.83 55.66 16.66 56 0 C61.94 0 67.88 0 74 0 C75.844719 1.844719 75.1200219 4.44516412 75.12442017 6.8993988 C75.11902725 8.1703817 75.11902725 8.1703817 75.11352539 9.46704102 C75.11367142 10.35476196 75.11381744 11.24248291 75.1139679 12.15710449 C75.11326843 15.10606284 75.10547448 18.05495887 75.09765625 21.00390625 C75.09579219 23.04271917 75.09436823 25.08153254 75.09336853 27.12034607 C75.08954241 32.49784574 75.07971132 37.87531858 75.06866455 43.25280762 C75.05845245 48.73559201 75.05387134 54.21838072 75.04882812 59.70117188 C75.03808914 70.46745973 75.02101159 81.23372764 75 92 C73.13378906 92.58520508 73.13378906 92.58520508 71 93 C68.859375 91.63671875 68.859375 91.63671875 66.75 89.6875 C66.04359375 89.05199219 65.3371875 88.41648437 64.609375 87.76171875 C63 86 63 86 63 84 C62.34 84 61.68 84 61 84 C59.28601011 82.38204011 57.62735491 80.7050723 56 79 C54.27208216 77.24876692 52.54292776 75.49875302 50.8125 73.75 C49.95269531 72.87859375 49.09289062 72.0071875 48.20703125 71.109375 C46.18568934 68.97005762 46.18568934 68.97005762 44 68 C44 67.34 44 66.68 44 66 C43.34 66 42.68 66 42 66 C42 65.34 42 64.68 42 64 C41.34 64 40.68 64 40 64 C40 63.34 40 62.68 40 62 C39.12214844 61.61521484 39.12214844 61.61521484 38.2265625 61.22265625 C35.80765392 59.89437838 34.26801128 58.43475199 32.375 56.4375 C29.95478041 53.85984611 29.95478041 53.85984611 27 52 C27 51.34 27 50.68 27 50 C26.34 50 25.68 50 25 50 C23.4921875 48.46875 23.4921875 48.46875 21.875 46.5 C21.33617187 45.8503125 20.79734375 45.200625 20.2421875 44.53125 C19.83226562 44.0259375 19.42234375 43.520625 19 43 C19.00222061 43.59912704 19.00444122 44.19825409 19.00672913 44.8155365 C19.02878165 51.02797858 19.04390646 57.24040962 19.05493164 63.45288086 C19.05997333 65.77417451 19.06680651 68.09546497 19.07543945 70.41674805 C19.08751225 73.74528795 19.09322979 77.07378602 19.09765625 80.40234375 C19.10281754 81.44712387 19.10797882 82.49190399 19.11329651 83.56834412 C19.11340981 85.00972496 19.11340981 85.00972496 19.11352539 86.48022461 C19.115746 87.33071884 19.11796661 88.18121307 19.12025452 89.05747986 C19 91 19 91 18 92 C12.06 92 6.12 92 0 92 C0 61.64 0 31.28 0 0 Z M17 40 C18 42 18 42 18 42 Z " fill="#3F2D6A" transform="translate(905,1732)"/>
<path d="M0 0 C6.27 0 12.54 0 19 0 C19 15.51 19 31.02 19 47 C31.21 47 43.42 47 56 47 C56 31.49 56 15.98 56 0 C62.27 0 68.54 0 75 0 C76.844719 1.844719 76.1200219 4.44516412 76.12442017 6.8993988 C76.11902725 8.1703817 76.11902725 8.1703817 76.11352539 9.46704102 C76.11367142 10.35476196 76.11381744 11.24248291 76.1139679 12.15710449 C76.11326843 15.10606284 76.10547448 18.05495887 76.09765625 21.00390625 C76.09579219 23.04271917 76.09436823 25.08153254 76.09336853 27.12034607 C76.08954241 32.49784574 76.07971132 37.87531858 76.06866455 43.25280762 C76.05845245 48.73559201 76.05387134 54.21838072 76.04882812 59.70117188 C76.03808914 70.46746162 76.02049158 81.23372439 76 92 C69.4 92 62.8 92 56 92 C56 82.76 56 73.52 56 64 C43.79 64 31.58 64 19 64 C19 73.24 19 82.48 19 92 C12.73 92 6.46 92 0 92 C0 61.64 0 31.28 0 0 Z " fill="#3F2D6B" transform="translate(368,1732)"/>
<path d="M0 0 C19.8 0 39.6 0 60 0 C60 6.27 60 12.54 60 19 C46.47 19 32.94 19 19 19 C19 27.58 19 36.16 19 45 C30.88 45 42.76 45 55 45 C55 50.61 55 56.22 55 62 C43.12 62 31.24 62 19 62 C19 65.96 19 69.92 19 74 C33.19 74 47.38 74 62 74 C62 79.94 62 85.88 62 92 C41.54 92 21.08 92 0 92 C0 61.64 0 31.28 0 0 Z " fill="#3E2D6C" transform="translate(1302,1732)"/>
<path d="M0 0 C9.714375 -0.020625 19.42875 -0.04125 29.4375 -0.0625 C34.04416626 -0.07615601 34.04416626 -0.07615601 38.74389648 -0.09008789 C41.16129513 -0.09300679 43.57869426 -0.09555541 45.99609375 -0.09765625 C47.2648938 -0.10277222 48.53369385 -0.10788818 49.84094238 -0.11315918 C51.03868286 -0.11328003 52.23642334 -0.11340088 53.47045898 -0.11352539 C55.03932106 -0.11685631 55.03932106 -0.11685631 56.63987732 -0.12025452 C59 0 59 0 60 1 C60 6.94 60 12.88 60 19 C46.47 19 32.94 19 19 19 C19 27.58 19 36.16 19 45 C30.88 45 42.76 45 55 45 C55 50.61 55 56.22 55 62 C43.12 62 31.24 62 19 62 C19 65.96 19 69.92 19 74 C33.19 74 47.38 74 62 74 C62 79.94 62 85.88 62 92 C41.54 92 21.08 92 0 92 C0 61.64 0 31.28 0 0 Z " fill="#3E2D6C" transform="translate(1635,1732)"/>
<path d="M0 0 C1.83304688 -0.01836914 1.83304688 -0.01836914 3.703125 -0.03710938 C17.62204778 -0.05922631 31.13581807 0.81398585 42.13671875 10.23046875 C50.26608722 18.72047463 52.3689963 27.10845449 52.21875 38.57177734 C51.82989887 48.23837345 48.84915259 55.07085448 42.16796875 62.140625 C33.63949826 69.36020261 24.72670342 71.36665678 13.9375 71.25 C11.235625 71.229375 8.53375 71.20875 5.75 71.1875 C5.75 78.1175 5.75 85.0475 5.75 92.1875 C-0.85 92.1875 -7.45 92.1875 -14.25 92.1875 C-14.27254978 80.33984487 -14.29091436 68.49220389 -14.30181217 56.6445322 C-14.30704131 51.14379138 -14.31413951 45.64306595 -14.32543945 40.14233398 C-14.33626725 34.8385344 -14.3422766 29.53474965 -14.34487724 24.23093987 C-14.34673169 22.20264388 -14.35035267 20.17434874 -14.35573006 18.14605904 C-14.36293906 15.31553486 -14.363991 12.48507282 -14.36352539 9.65454102 C-14.36712067 8.80721909 -14.37071594 7.95989716 -14.37442017 7.0868988 C-14.3567945 -2.74822544 -8.4853569 0.00431167 0 0 Z M5.75 19.1875 C5.75 30.7375 5.75 42.2875 5.75 54.1875 C19.59920696 53.99584983 19.59920696 53.99584983 29.0625 47.0625 C32.15186572 41.79913618 32.11081262 36.35237572 31.125 30.4375 C29.44238874 26.46041884 27.80969755 24.24719755 24.75 21.1875 C18.48108186 18.32092176 18.48108186 18.32092176 5.75 19.1875 Z " fill="#3F2D6A" transform="translate(637.25,1731.8125)"/>
<path d="M0 0 C44.89273649 0 44.89273649 0 57 11.4375 C64.02040543 19.24364424 66.53199507 27.99756596 66.2421875 38.3984375 C65.30204459 48.49739197 61.56784804 57.02045288 53.9296875 63.8515625 C43.15208701 71.69332916 31.75646379 71.30615513 19 71 C19 77.93 19 84.86 19 92 C12.73 92 6.46 92 0 92 C0 61.64 0 31.28 0 0 Z M19 19 C19 30.55 19 42.1 19 54 C30.72610877 54.06915676 30.72610877 54.06915676 41 49 C45.09650203 43.79633526 45.63349642 39.44506879 45.37890625 32.875 C44.63490798 27.22981726 42.53230206 24.32799512 38.1875 20.5625 C32.40266265 18.1260237 32.40266265 18.1260237 19 19 Z " fill="#3F2D6A" transform="translate(731,1732)"/>
<path d="M0 0 C4.46895163 3.27723119 8.44598558 6.7646815 11.52734375 11.38671875 C11.546875 13.265625 11.546875 13.265625 10.52734375 15.38671875 C8.404083 17.13154799 6.37269262 18.6376073 4.08984375 20.13671875 C3.49107422 20.54792969 2.89230469 20.95914062 2.27539062 21.3828125 C-2.18056998 24.38671875 -2.18056998 24.38671875 -4.47265625 24.38671875 C-5.5574028 23.15245308 -6.5912649 21.87316573 -7.59765625 20.57421875 C-11.9274191 15.54064671 -15.58525071 13.78455265 -22.14453125 13.11328125 C-28.32670113 12.89126962 -32.84721917 13.87536291 -38.47265625 16.38671875 C-39.46265625 16.71671875 -40.45265625 17.04671875 -41.47265625 17.38671875 C-41.80265625 18.37671875 -42.13265625 19.36671875 -42.47265625 20.38671875 C-43.13265625 20.38671875 -43.79265625 20.38671875 -44.47265625 20.38671875 C-44.74078125 21.08796875 -45.00890625 21.78921875 -45.28515625 22.51171875 C-46.47265625 25.38671875 -46.47265625 25.38671875 -48.015625 28.01953125 C-49.82914137 32.21055299 -50.01005991 35.61987152 -49.97265625 40.13671875 C-49.96693604 40.93368164 -49.96121582 41.73064453 -49.95532227 42.55175781 C-49.72737517 50.08859443 -47.96709968 55.67387261 -42.72265625 61.24609375 C-36.24123011 67.1129019 -30.18265929 68.4961409 -21.47265625 68.38671875 C-18.28974596 67.72917141 -15.45057368 66.66819961 -12.47265625 65.38671875 C-11.50328125 65.07734375 -10.53390625 64.76796875 -9.53515625 64.44921875 C-6.9726233 63.12912602 -6.51231671 62.02585685 -5.47265625 59.38671875 C-4.48265625 57.90171875 -4.48265625 57.90171875 -3.47265625 56.38671875 C1.084348 56.91156567 3.72021775 58.70179178 7.33984375 61.44921875 C8.31566406 62.18269531 9.29148437 62.91617187 10.296875 63.671875 C11.03292969 64.23777344 11.76898437 64.80367187 12.52734375 65.38671875 C11.38708524 72.36933274 7.47376161 75.8671276 2.02734375 80.01171875 C-8.56478989 87.05751856 -20.04934542 88.60807701 -32.47265625 87.38671875 C-40.49624723 85.75406204 -47.56238227 82.743584 -54.47265625 78.38671875 C-54.47265625 77.72671875 -54.47265625 77.06671875 -54.47265625 76.38671875 C-55.13265625 76.38671875 -55.79265625 76.38671875 -56.47265625 76.38671875 C-56.47265625 75.72671875 -56.47265625 75.06671875 -56.47265625 74.38671875 C-57.05917969 74.16242188 -57.64570312 73.938125 -58.25 73.70703125 C-64.70433626 69.8729967 -68.41577481 60.35726141 -70.47265625 53.38671875 C-72.98066062 39.02269372 -71.52922119 24.82371878 -63.47265625 12.38671875 C-58.68463994 6.54551586 -53.22401146 1.78740137 -46.47265625 -1.61328125 C-45.7559375 -2.00515625 -45.03921875 -2.39703125 -44.30078125 -2.80078125 C-31.19444533 -8.81133021 -12.01512046 -7.83924921 0 0 Z " fill="#3F2D69" transform="translate(1247.47265625,1737.61328125)"/>
<path d="M0 0 C0.80759766 -0.01998047 1.61519531 -0.03996094 2.44726562 -0.06054688 C9.70844393 -0.0546958 14.88738743 2.06637749 20.3125 6.875 C21.055 7.720625 21.7975 8.56625 22.5625 9.4375 C23.34625 10.30375 24.13 11.17 24.9375 12.0625 C25.47375 12.84625 26.01 13.63 26.5625 14.4375 C25.22204976 18.45885071 23.23720772 19.34301694 19.75 21.6875 C18.16251953 22.77804687 18.16251953 22.77804687 16.54296875 23.890625 C13.5625 25.4375 13.5625 25.4375 11.23828125 25.359375 C9.5625 24.4375 9.5625 24.4375 8.5625 21.4375 C7.9025 21.4375 7.2425 21.4375 6.5625 21.4375 C6.5625 20.7775 6.5625 20.1175 6.5625 19.4375 C2.2725 19.4375 -2.0175 19.4375 -6.4375 19.4375 C-6.705625 20.654375 -6.97375 21.87125 -7.25 23.125 C-7.40082031 23.80949219 -7.55164063 24.49398438 -7.70703125 25.19921875 C-7.26873151 28.8390122 -5.1945331 30.16635258 -2.4375 32.4375 C0.73168507 34.05501923 0.73168507 34.05501923 4.1875 35.3125 C14.02396738 39.28439635 23.67318399 44.25154063 29.5625 53.4375 C32.4899997 60.51065364 33.22880382 70.01884533 30.5 77.3125 C25.48034977 85.40871004 20.79666568 89.69973229 11.5625 92.4375 C10.94503906 92.62699219 10.32757813 92.81648438 9.69140625 93.01171875 C-1.11787647 95.17357529 -11.68506803 93.42767429 -21.4375 88.4375 C-26.56592979 84.84976914 -30.54181621 81.03163835 -33.4375 75.4375 C-33.4375 74.4475 -33.4375 73.4575 -33.4375 72.4375 C-31.19570623 71.06784792 -28.94577662 69.71697192 -26.6875 68.375 C-26.05328125 67.98505859 -25.4190625 67.59511719 -24.765625 67.19335938 C-19.96567207 64.36838708 -19.96567207 64.36838708 -17.33105469 64.71313477 C-14.75057581 65.70027773 -13.84889735 67.10869438 -12.4375 69.4375 C-12.4375 70.0975 -12.4375 70.7575 -12.4375 71.4375 C-5.67073145 74.01531659 -0.22445005 75.62968798 6.9375 73.375 C9.86179063 71.59632527 9.86179063 71.59632527 10.75 68.0625 C10.91410394 64.37570845 10.91410394 64.37570845 8.5546875 61.94140625 C5.05703639 59.01452066 1.69576733 57.43830601 -2.5 55.75 C-3.90785986 55.16349867 -5.31542146 54.57628076 -6.72265625 53.98828125 C-7.69549561 53.58730225 -7.69549561 53.58730225 -8.68798828 53.17822266 C-10.6499434 52.34755397 -12.55293068 51.43118201 -14.4375 50.4375 C-14.4375 49.7775 -14.4375 49.1175 -14.4375 48.4375 C-15.489375 48.1590625 -15.489375 48.1590625 -16.5625 47.875 C-21.25810273 45.52719864 -24.18423146 41.64563981 -26.75 37.125 C-28.64792001 29.70585815 -29.86424845 21.08298989 -26.20703125 14.08203125 C-19.68314319 3.801457 -11.93749421 -0.104299 0 0 Z " fill="#3F2D69" transform="translate(294.4375,1731.5625)"/>
<path d="M0 0 C23.1 0 46.2 0 70 0 C70 6.27 70 12.54 70 19 C61.75 19 53.5 19 45 19 C45 43.09 45 67.18 45 92 C38.4 92 31.8 92 25 92 C25 67.91 25 43.82 25 19 C16.75 19 8.5 19 0 19 C0 12.73 0 6.46 0 0 Z " fill="#3E2C6D" transform="translate(1524,1732)"/>
<path d="M0 0 C6.27 0 12.54 0 19 0 C19 30.36 19 60.72 19 92 C12.73 92 6.46 92 0 92 C0 61.64 0 31.28 0 0 Z " fill="#3F2D6B" transform="translate(839,1732)"/>
</svg>
